<svg xmlns="http://www.w3.org/2000/svg" viewBox="0 0 500 500"><g id="freepik--background-complete--inject-38"><rect y="382.4" width="500" height="0.25" style="fill:#ebebeb"></rect><rect x="410.77" y="391.92" width="33.12" height="0.25" style="fill:#ebebeb"></rect><rect x="131.47" y="395.31" width="49.86" height="0.25" style="fill:#ebebeb"></rect><rect x="380.24" y="401.21" width="29.53" height="0.25" style="fill:#ebebeb"></rect><rect x="52.46" y="399.53" width="21.6" height="0.25" style="fill:#ebebeb"></rect><rect x="82.96" y="399.53" width="38.37" height="0.25" style="fill:#ebebeb"></rect><rect x="237.54" y="389.21" width="93.68" height="0.25" style="fill:#ebebeb"></rect><path d="M237,337.8H43.91a5.71,5.71,0,0,1-5.7-5.71V60.66A5.71,5.71,0,0,1,43.91,55H237a5.71,5.71,0,0,1,5.71,5.71V332.09A5.71,5.71,0,0,1,237,337.8ZM43.91,55.2a5.46,5.46,0,0,0-5.45,5.46V332.09a5.46,5.46,0,0,0,5.45,5.46H237a5.47,5.47,0,0,0,5.46-5.46V60.66A5.47,5.47,0,0,0,237,55.2Z" style="fill:#ebebeb"></path><path d="M453.31,337.8H260.21a5.72,5.72,0,0,1-5.71-5.71V60.66A5.72,5.72,0,0,1,260.21,55h193.1A5.71,5.71,0,0,1,459,60.66V332.09A5.71,5.71,0,0,1,453.31,337.8ZM260.21,55.2a5.47,5.47,0,0,0-5.46,5.46V332.09a5.47,5.47,0,0,0,5.46,5.46h193.1a5.47,5.47,0,0,0,5.46-5.46V60.66a5.47,5.47,0,0,0-5.46-5.46Z" style="fill:#ebebeb"></path><rect x="272.49" y="79.44" width="175.11" height="181.78" rx="12" style="fill:#fafafa"></rect><circle cx="408.21" cy="117.5" r="13.83" style="fill:#f0f0f0"></circle><circle cx="372" cy="117.5" r="13.83" style="fill:#fff"></circle><path d="M373.18,240.24a49.37,49.37,0,1,1,49.36-49.37A49.42,49.42,0,0,1,373.18,240.24Zm0-97.74a48.37,48.37,0,1,0,48.36,48.37A48.43,48.43,0,0,0,373.18,142.5Z" style="fill:#fff"></path><path d="M375.31,290.67a34.13,34.13,0,0,0-33.57,28c-1.32,7.32-2.63,14.63-4.4,21.85L327,382.65H423.6L413.28,340.5c-1.77-7.22-3.07-14.53-4.4-21.85A34.13,34.13,0,0,0,375.31,290.67Z" style="fill:#e0e0e0"></path><path d="M380.65,290.67a34.13,34.13,0,0,0-33.57,28c-1.33,7.32-2.64,14.63-4.4,21.85l-10.33,42.15h96.59L418.61,340.5c-1.76-7.22-3.07-14.53-4.39-21.85A34.13,34.13,0,0,0,380.65,290.67Z" style="fill:#e6e6e6"></path><path d="M168.81,128.5h0a17.25,17.25,0,0,1,20.75-12.7l155,37.31a17.26,17.26,0,0,1,12.7,20.75h0a17.24,17.24,0,0,1-20.75,12.7l-155-37.31A17.24,17.24,0,0,1,168.81,128.5Z" style="fill:#e0e0e0"></path><path d="M171.8,126.67h0A17.25,17.25,0,0,1,192.55,114l155,37.31A17.24,17.24,0,0,1,360.21,172h0a17.25,17.25,0,0,1-20.75,12.7l-155-37.31A17.26,17.26,0,0,1,171.8,126.67Z" style="fill:#ebebeb"></path><path d="M192.59,131.67h0a8.87,8.87,0,0,1,10.67-6.53l129.63,31.21A8.88,8.88,0,0,1,339.42,167h0a8.87,8.87,0,0,1-10.67,6.53L199.12,142.35A8.88,8.88,0,0,1,192.59,131.67Z" style="fill:#e0e0e0"></path><path d="M172.14,128.18a36,36,0,0,0-31.8-10C129.87,120,126,133,133.48,140.55l26.29,26.29c7.51,7.51,20.55,3.61,22.39-6.85A36,36,0,0,0,172.14,128.18Z" style="fill:#f5f5f5"></path><path d="M111.57,243.34v-10A44.59,44.59,0,1,0,67,188.75H57a54.59,54.59,0,1,1,54.59,54.59Z" style="fill:#ebebeb"></path><path d="M141.21,159.11c3.54,3.54,9.53,3.82,15.78,1.34,5.84-2.32,9.59-9.8,6.52-12.88l-10.76-10.75c-3.08-3.08-10.56.67-12.87,6.51C137.4,149.59,137.67,155.57,141.21,159.11Z" style="fill:#f5f5f5"></path><circle cx="172.14" cy="128.18" r="11" style="fill:#fafafa"></circle><rect x="327.95" y="134.66" width="51.93" height="193.8" rx="22.54" transform="translate(-59.09 140.44) rotate(-20.75)" style="fill:#e0e0e0"></rect><rect x="333.28" y="134.66" width="51.93" height="193.8" rx="22.54" transform="translate(-58.74 142.33) rotate(-20.75)" style="fill:#f0f0f0"></rect><path d="M382.45,303.84a1.64,1.64,0,0,1-1.49-1l-52.7-139.07a1.6,1.6,0,0,1,.89-2l6.41-2.43a1.41,1.41,0,0,1,.49-.09,1.63,1.63,0,0,1,1.49,1l52.7,139.07a1.59,1.59,0,0,1-.89,2l-6.41,2.43A1.26,1.26,0,0,1,382.45,303.84Z" style="fill:#e0e0e0"></path><path d="M391.81,290.67a34.13,34.13,0,0,0-33.57,28c-1.32,7.32-2.63,14.63-4.4,21.85l-10.32,42.15H440.1L429.78,340.5c-1.77-7.22-3.07-14.53-4.4-21.85A34.13,34.13,0,0,0,391.81,290.67Z" style="fill:#e0e0e0"></path><path d="M397.15,290.67a34.13,34.13,0,0,0-33.57,28c-1.33,7.32-2.64,14.63-4.4,21.85l-10.33,42.15h96.59L435.11,340.5c-1.76-7.22-3.07-14.53-4.39-21.85A34.13,34.13,0,0,0,397.15,290.67Z" style="fill:#f5f5f5"></path><circle cx="334.35" cy="165.82" r="23.82" transform="translate(-19.32 284.99) rotate(-45)" style="fill:#fafafa"></circle><path d="M334.35,185.16a19.35,19.35,0,1,1,19.34-19.34A19.37,19.37,0,0,1,334.35,185.16Zm0-37.75a18.41,18.41,0,1,0,18.41,18.41A18.43,18.43,0,0,0,334.35,147.41Z" style="fill:#e0e0e0"></path><rect x="72.21" y="317" width="69.83" height="65.4" style="fill:#f5f5f5"></rect><rect x="51.21" y="317" width="21" height="65.4" transform="translate(123.42 699.4) rotate(180)" style="fill:#e6e6e6"></rect><rect x="75.88" y="276.78" width="59.41" height="40.22" transform="translate(211.17 593.78) rotate(180)" style="fill:#f0f0f0"></rect><rect x="135.29" y="276.78" width="17.87" height="40.22" style="fill:#e0e0e0"></rect><rect x="174.02" y="321.65" width="51.69" height="60.74" transform="translate(399.73 704.05) rotate(180)" style="fill:#e6e6e6"></rect><path d="M220.66,376.37H179.08V327.68h41.58Zm-40.58-1h39.58V328.68H180.08Z" style="fill:#f5f5f5"></path><rect x="225.71" y="321.65" width="15.54" height="60.74" style="fill:#f5f5f5"></rect><rect x="44.33" y="188.76" width="51.69" height="60.75" transform="translate(140.35 438.26) rotate(180)" style="fill:#e6e6e6"></rect><rect x="96.02" y="188.76" width="15.54" height="60.75" style="fill:#f5f5f5"></rect></g><g id="freepik--Shadow--inject-38"><ellipse id="freepik--path--inject-38" cx="250" cy="416.24" rx="193.89" ry="11.32" style="fill:#f5f5f5"></ellipse></g><g id="freepik--assembly-line--inject-38"><path d="M157.87,278.3h93.79v-9.39H157.87a4.69,4.69,0,0,0-4.69,4.69h0A4.69,4.69,0,0,0,157.87,278.3Z" style="fill:#263238"></path><rect x="194.11" y="278.3" width="5.98" height="136.61" transform="translate(394.2 693.2) rotate(180)" style="fill:#059669"></rect><rect x="194.11" y="278.3" width="5.98" height="136.61" transform="translate(394.2 693.2) rotate(180)" style="fill:#fff;opacity:0.7000000000000001"></rect><rect x="164.43" y="278.3" width="5.98" height="136.61" transform="translate(334.84 693.2) rotate(180)" style="fill:#059669"></rect><rect x="164.43" y="278.3" width="5.98" height="136.61" transform="translate(334.84 693.2) rotate(180)" style="fill:#fff;opacity:0.7000000000000001"></rect><circle cx="157.87" cy="273.6" r="3.05" style="fill:#059669"></circle><path d="M168.22,273.6a3,3,0,1,0,3.05-3A3,3,0,0,0,168.22,273.6Z" style="fill:#059669"></path><circle cx="184.67" cy="273.6" r="3.05" style="fill:#059669"></circle><circle cx="198.07" cy="273.6" r="3.05" style="fill:#059669"></circle><circle cx="211.46" cy="273.6" r="3.05" style="fill:#059669"></circle><circle cx="224.86" cy="273.6" r="3.05" style="fill:#059669"></circle><circle cx="238.26" cy="273.6" r="3.05" style="fill:#059669"></circle><path d="M251.66,270.56v6.09a3,3,0,1,1,0-6.09Z" style="fill:#059669"></path><rect x="291.44" y="164.57" width="6.21" height="1" style="fill:#059669"></rect><rect x="265.67" y="164.57" width="20" height="1" style="fill:#059669"></rect><path d="M227.23,168.07h96.21a8.21,8.21,0,0,1,8.21,8.21V414.9a0,0,0,0,1,0,0H219a0,0,0,0,1,0,0V176.28A8.21,8.21,0,0,1,227.23,168.07Z" style="fill:#059669"></path><polygon points="250.18 240.5 219.02 240.5 219.02 239.57 249.26 239.57 249.26 168.07 250.18 168.07 250.18 240.5" style="fill:#fff;opacity:0.2"></polygon><path d="M305.86,168.07h17.58a8.21,8.21,0,0,1,8.21,8.21V414.9a0,0,0,0,1,0,0h-34a0,0,0,0,1,0,0V176.28A8.21,8.21,0,0,1,305.86,168.07Z" style="fill:#263238;opacity:0.4"></path><path d="M308.48,209h12.35a4,4,0,0,1,4,4v75.16a0,0,0,0,1,0,0H304.49a0,0,0,0,1,0,0V213A4,4,0,0,1,308.48,209Z" style="fill:#059669"></path><path d="M308.48,209h10.7a4,4,0,0,1,4,4v75.16a0,0,0,0,1,0,0H304.49a0,0,0,0,1,0,0V213a4,4,0,0,1,4-4Z"></path><polygon points="297.65 401.45 262.79 401.45 262.79 288.74 297.65 288.74 297.65 289.66 263.71 289.66 263.71 400.53 297.65 400.53 297.65 401.45" style="fill:#fff;opacity:0.2"></polygon><path d="M249.44,401.45a5.83,5.83,0,1,1,5.84-5.83A5.83,5.83,0,0,1,249.44,401.45Zm0-10.74a4.91,4.91,0,1,0,4.91,4.91A4.92,4.92,0,0,0,249.44,390.71Z" style="fill:#fff;opacity:0.2"></path><path d="M233.85,401.45a5.83,5.83,0,1,1,5.83-5.83A5.83,5.83,0,0,1,233.85,401.45Zm0-10.74a4.91,4.91,0,1,0,4.91,4.91A4.92,4.92,0,0,0,233.85,390.71Z" style="fill:#fff;opacity:0.2"></path><path d="M427.91,278.3H334.12v-9.39h93.79a4.69,4.69,0,0,1,4.69,4.69h0A4.69,4.69,0,0,1,427.91,278.3Z" style="fill:#059669"></path><path d="M398.29,278.3h-93.8v-9.39h93.8A4.69,4.69,0,0,1,403,273.6h0A4.69,4.69,0,0,1,398.29,278.3Z" style="fill:#263238"></path><rect x="385.69" y="278.3" width="5.98" height="136.61" style="fill:#059669"></rect><rect x="385.69" y="278.3" width="5.98" height="136.61" style="fill:#fff;opacity:0.7000000000000001"></rect><rect x="415.37" y="278.3" width="5.98" height="136.61" style="fill:#059669"></rect><rect x="415.37" y="278.3" width="5.98" height="136.61" style="fill:#fff;opacity:0.7000000000000001"></rect><circle cx="398.29" cy="273.6" r="3.05" style="fill:#059669"></circle><circle cx="384.89" cy="273.6" r="3.05" style="fill:#059669"></circle><circle cx="371.49" cy="273.6" r="3.05" style="fill:#059669"></circle><circle cx="358.09" cy="273.6" r="3.05" style="fill:#059669"></circle><circle cx="344.69" cy="273.6" r="3.05" style="fill:#059669"></circle><circle cx="331.29" cy="273.6" r="3.05" style="fill:#059669"></circle><circle cx="317.89" cy="273.6" r="3.05" style="fill:#059669"></circle><path d="M304.49,270.56v6.09a3,3,0,1,0,0-6.09Z" style="fill:#059669"></path><rect x="228.48" y="192.72" width="59.71" height="111.25" rx="3.5" style="fill:#fff"></rect><rect x="234.86" y="204.6" width="46.95" height="33.17" rx="3.73" style="fill:#059669;opacity:0.30000000000000004"></rect><rect x="234.86" y="242.52" width="46.95" height="22.84" rx="3.54" style="fill:#059669;opacity:0.30000000000000004"></rect><path d="M249,254l-7.84-2.85a8.34,8.34,0,0,1,16.05,1.41Z" style="fill:#059669"></path><path d="M249,254l8.21-1.44a8.66,8.66,0,0,1,.13,1.44,8.35,8.35,0,1,1-16.69,0,8.2,8.2,0,0,1,.51-2.85Z" style="fill:#fff"></path><rect x="268.63" y="252.86" width="3.16" height="9.42" style="fill:#fff"></rect><rect x="263.25" y="257.87" width="3.16" height="4.41" style="fill:#fff"></rect><rect x="263.25" y="255.18" width="3.16" height="2.69" style="fill:#059669"></rect><rect x="268.63" y="247.12" width="3.16" height="5.74" style="fill:#059669"></rect><rect x="274" y="254.57" width="3.16" height="7.7" style="fill:#fff"></rect><rect x="274" y="251.04" width="3.16" height="3.53" style="fill:#059669"></rect><path d="M241.69,228.35h33.18a1.33,1.33,0,0,0,1.21-1.91,26,26,0,0,1-2.32-8.91c-.62-7-5.36-8.7-7.38,0s-10.09,4.22-13.38.08c-3.06-3.84-8.06.41-12.5,8.77A1.35,1.35,0,0,0,241.69,228.35Z" style="fill:#059669"></path><path d="M240.41,273.1a4.63,4.63,0,1,1-4.63,4.63,4.64,4.64,0,0,1,4.63-4.63m0-.92a5.56,5.56,0,1,0,5.56,5.55,5.54,5.54,0,0,0-5.56-5.55Z" style="fill:#263238"></path><path d="M255.5,273.1a4.63,4.63,0,1,1-4.63,4.63,4.64,4.64,0,0,1,4.63-4.63m0-.92a5.56,5.56,0,1,0,5.55,5.55,5.54,5.54,0,0,0-5.55-5.55Z" style="fill:#059669"></path><path d="M281.81,292.49a2.4,2.4,0,1,1-2.39-2.4A2.4,2.4,0,0,1,281.81,292.49Z" style="fill:#059669"></path><path d="M271.27,292.49a2.4,2.4,0,1,1-2.39-2.4A2.4,2.4,0,0,1,271.27,292.49Z" style="fill:#059669;opacity:0.30000000000000004"></path><path d="M260.73,292.49a2.4,2.4,0,1,1-2.4-2.4A2.4,2.4,0,0,1,260.73,292.49Z" style="fill:#059669"></path><path d="M250.19,292.49a2.4,2.4,0,1,1-2.4-2.4A2.4,2.4,0,0,1,250.19,292.49Z" style="fill:#059669"></path><path d="M239.65,292.49a2.4,2.4,0,1,1-2.4-2.4A2.4,2.4,0,0,1,239.65,292.49Z" style="fill:#059669"></path><rect x="345.53" y="232.53" width="52.75" height="36.39" style="fill:#059669"></rect><rect x="359.01" y="232.53" width="9.43" height="13.37" style="fill:#fff;opacity:0.7000000000000001"></rect><rect x="381.84" y="232.53" width="16.45" height="36.39" style="opacity:0.2"></rect><rect x="387.43" y="232.53" width="5.26" height="13.37" style="fill:#059669;opacity:0.7000000000000001"></rect><path d="M355.68,258.77v5.94h-5.94v-5.94h5.94m.92-.93h-7.79v7.79h7.79v-7.79Z" style="fill:#fff"></path><rect x="359.88" y="257.84" width="7.79" height="7.79" style="fill:#263238;opacity:0.4"></rect><rect x="186.5" y="238.54" width="17.04" height="30.37" rx="0.78" style="fill:#263238"></rect><path d="M186.37,238.54h15.47a.78.78,0,0,1,.78.78v28.8a.78.78,0,0,1-.78.78H186.37a.79.79,0,0,1-.79-.79v-28.8A.78.78,0,0,1,186.37,238.54Z" style="fill:#059669"></path><rect x="179.85" y="246.13" width="28.52" height="15.19" rx="0.72" transform="translate(447.84 59.62) rotate(90)" style="fill:#fff"></rect><polygon points="193.81 239.47 190.67 239.47 188.31 267.99 191.46 267.99 193.81 239.47" style="fill:#059669;opacity:0.2"></polygon><polygon points="196.96 239.47 194.92 239.47 192.57 267.99 194.6 267.99 196.96 239.47" style="fill:#059669;opacity:0.2"></polygon></g><g id="freepik--Character--inject-38"><path d="M187.75,209.85H162.46a.78.78,0,0,1-.79-1l6.56-35a1.23,1.23,0,0,1,1.16-1h25.28a.79.79,0,0,1,.8,1l-6.56,35A1.23,1.23,0,0,1,187.75,209.85Z" style="fill:#059669"></path><path d="M186.85,208.38h-23.8a.74.74,0,0,1-.75-.92l6.17-33a1.17,1.17,0,0,1,1.1-.92h23.8a.74.74,0,0,1,.75.92l-6.18,33A1.15,1.15,0,0,1,186.85,208.38Z" style="fill:#fff"></path><path d="M131.53,175.3l-.22.47-.27.61-.53,1.26c-.34.87-.66,1.76-.95,2.67-.59,1.81-1.14,3.66-1.57,5.56a76.93,76.93,0,0,0-1.82,11.58l-.11,1.4c0,.19,0,.25-.09.09a1.62,1.62,0,0,0-.64-.64c-.26-.14-.34-.09-.23,0a5,5,0,0,0,1.81,0,18.53,18.53,0,0,0,2.59-.58,88.43,88.43,0,0,0,11.08-4.35l2.42,3.77a53.1,53.1,0,0,1-11.08,7,26.56,26.56,0,0,1-3.37,1.26,12,12,0,0,1-4.38.51,7.1,7.1,0,0,1-3.16-1,6.46,6.46,0,0,1-2.53-3,8.34,8.34,0,0,1-.57-3V197.1A68,68,0,0,1,119.22,184a53.24,53.24,0,0,1,1.69-6.48c.34-1.07.74-2.14,1.16-3.21.22-.53.43-1.06.68-1.6l.39-.82c.15-.29.26-.51.48-.92Z" style="fill:#b55b52"></path><path d="M137.49,139.67c1,5.25,3.34,16.69-.33,20.18,0,0,1.43,5.32,11.17,5.32,10.72,0,5.12-5.32,5.12-5.32-5.84-1.39-5.69-5.73-4.67-9.8Z" style="fill:#b55b52"></path><path d="M135,161.68s-.94-3-1.29-4.75,12.79-1.19,17.14-.07,5.74,6.21,5.74,6.21Z" style="fill:#263238"></path><path d="M160.92,138.46a19.27,19.27,0,0,0,1.57,5,3.07,3.07,0,0,1-2.59-.05Z" style="fill:#a02724"></path><path d="M159.37,133.09a.34.34,0,0,1-.16-.1.41.41,0,0,1,0-.59,4.13,4.13,0,0,1,3.62-1.22.41.41,0,0,1,.32.49.42.42,0,0,1-.5.32h0a3.31,3.31,0,0,0-2.85,1A.41.41,0,0,1,159.37,133.09Z" style="fill:#263238"></path><path d="M160.55,137.13c-.15.7.1,1.34.56,1.43s.94-.39,1.09-1.09-.11-1.34-.57-1.43S160.69,136.43,160.55,137.13Z" style="fill:#263238"></path><path d="M161.42,136l1.78-.13S162.07,137,161.42,136Z" style="fill:#263238"></path><polygon points="92.5 414.39 101.33 414.39 104.15 393.93 95.31 393.93 92.5 414.39" style="fill:#b55b52"></polygon><path d="M102.84,408.33H92.91a.71.71,0,0,0-.71.6l-1.13,7.85a1.43,1.43,0,0,0,1.42,1.58c3.46-.06,5.13-.27,9.5-.27,2.68,0,6.6.28,10.31.28s3.91-3.67,2.37-4c-6.93-1.49-8-3.54-10.36-5.5A2.3,2.3,0,0,0,102.84,408.33Z" style="fill:#263238"></path><polygon points="95.31 393.93 104.15 393.93 102.69 404.48 93.85 404.48 95.31 393.93" style="opacity:0.2"></polygon><path d="M126.05,161.94c-3.58,1.14-6.27,14.66-6.27,14.66l11.35,10s7.43-13.15,5.27-17.53C134.14,164.54,130.28,160.6,126.05,161.94Z" style="fill:#263238"></path><path d="M169.44,169c0,5.67.21,16.21-3.49,35-.67,3.41.66,4.92.06,8.41-.39,2.27-1.66,1.94-1.84,3H128.28c0-1.07-1.57-1.64-1.93-3.94-.84-5.29,2.22-5.73,2.12-9.06-.25-8.4-1.47-17.84-5.15-34.42a6,6,0,0,1,5-7.29c2.58-.37,5.69-.73,8.83-.89a114.89,114.89,0,0,1,16.29,0c3.18.29,6.56.79,9.29,1.24A8,8,0,0,1,169.44,169Z" style="fill:#263238"></path><path d="M168.07,185.35c-.23,2.52-.07,5.36-.47,8.57-5.93-3-6.75-10.68-4.93-14.57A25.75,25.75,0,0,1,168.07,185.35Z" style="opacity:0.4"></path><path d="M170.78,171.45c1,3.88,2.08,7.88,3.22,11.77s2.36,7.78,3.79,11.46a56.5,56.5,0,0,0,2.3,5.27,2.53,2.53,0,0,0-.87-.59c-.59-.21-1-.07-.93,0a3.33,3.33,0,0,0,1.46-.6,31.72,31.72,0,0,0,4.4-3.42c1.48-1.31,3-2.74,4.4-4.12l3.65,2.6a48.83,48.83,0,0,1-3.44,5.62,29.88,29.88,0,0,1-4.63,5.21,13.62,13.62,0,0,1-1.67,1.22,9.24,9.24,0,0,1-2.37,1.07,6.22,6.22,0,0,1-4-.19A6.49,6.49,0,0,1,173,204a56,56,0,0,1-3.09-6,113.09,113.09,0,0,1-4.55-12.13c-.65-2-1.26-4.07-1.81-6.13s-1.1-4.09-1.57-6.23Z" style="fill:#b55b52"></path><path d="M168,164.06c4.64,5.22,6.59,14.73,6.59,14.73L161.2,187.5s-6.62-15-5-19.6C158.33,161.75,163.48,159,168,164.06Z" style="fill:#263238"></path><path d="M192.81,191.63c.58-1.79-1.19-1.77-.59-5.43.21-1.29-.91-1.84-1-1.16-.58,3.45-7.37,8.67-3.74,10.33C189.65,196.38,192.81,191.63,192.81,191.63Z" style="fill:#b55b52"></path><path d="M195.49,189.92c-.07-2-1.62-4.55-3.15-1.38l-.8.62s-2.16.32-4.87,4l2.9,2.6,1-.15a9.5,9.5,0,0,0,4.33-1.9l.2-.17a1.91,1.91,0,0,0,.63-1.62Z" style="fill:#b55b52"></path><path d="M137.57,129.88c-1.24,8.68-2,12.33,1.46,17.62,5.15,8,16.08,7.6,19.9-.53,3.43-7.32,4.89-20.29-2.79-25.44A12,12,0,0,0,137.57,129.88Z" style="fill:#b55b52"></path><path d="M154.91,136.44c3.51-2.27,7.22-5.52,6.9-9.94s-5.89-8.58-13.56-8.58c-10.25,0-9.83,6.66-9.83,6.66-2,.25-21.92,17.87,2.75,24.71S154.91,136.44,154.91,136.44Z" style="fill:#263238"></path><path d="M134.44,125.19s-1,2.2-.67,3.2c3.34.86,15,1.36,20.87.28a13.64,13.64,0,0,1,2.55-3.17Z" style="fill:#fff"></path><path d="M133.5,126.25c.53,1.79,20.79.84,27.31,0a25,25,0,0,0,4.59-1.08v-.68h-2.79s-1.8-12.19-14.18-12.17C137.8,112.39,131.57,119.71,133.5,126.25Z" style="fill:#059669"></path><path d="M151.23,111.75a38.34,38.34,0,0,0-6,0c-1.94.62-3.69.9-6.08,4.6l5.35.18s3.48-3.87,6.95-3.9A2.35,2.35,0,0,0,151.23,111.75Z" style="fill:#059669"></path><path d="M142.87,124.71h-.05a.37.37,0,0,1-.32-.42c1.39-8.94,7.86-12,8.14-12.08a.37.37,0,0,1,.49.19.36.36,0,0,1-.18.49c-.07,0-6.38,3-7.71,11.51A.36.36,0,0,1,142.87,124.71Z" style="opacity:0.2"></path><path d="M158.27,135.48a8,8,0,0,1-.32,5.43c-1,2.25-3.1,1.75-4.17-.25-1-1.79-1.62-5.12,0-6.72S157.61,133.32,158.27,135.48Z" style="fill:#b55b52"></path><path d="M154.69,215.45s-15.56,60.65-26.76,94.83c-9.05,27.61-23.54,92.14-23.54,92.14h-12s6.48-62.6,13.36-89.91c17.41-69.1,6.07-74.72,22.58-97.06Z" style="fill:#059669"></path><path d="M138.46,234.45c-5.21,19-4.81,39.73-2.58,49.89,3.22-11.06,6.44-22.61,9.28-33C144.18,245.7,141.19,239.15,138.46,234.45Z" style="opacity:0.4"></path><polygon points="106.16 402.66 90.81 402.66 91.22 397.27 107.58 396.72 106.16 402.66" style="fill:#263238"></polygon><polygon points="151.95 414.37 160.79 414.37 160.1 393.91 151.26 393.91 151.95 414.37" style="fill:#b55b52"></polygon><path d="M161.49,408.33h-9.93a.69.69,0,0,0-.7.6l-1.13,7.85a1.42,1.42,0,0,0,1.41,1.58c3.46-.06,5.13-.27,9.5-.27,2.68,0,6.61.28,10.32.28s3.9-3.67,2.36-4c-6.93-1.49-8-3.54-10.35-5.5A2.33,2.33,0,0,0,161.49,408.33Z" style="fill:#263238"></path><polygon points="151.26 393.91 160.1 393.91 160.45 404.46 151.61 404.46 151.26 393.91" style="opacity:0.2"></polygon><path d="M164.17,215.45s0,60.65-2.39,94.83c-1.95,27.61.15,92.14.15,92.14H149.88s-9.61-62.6-9.75-89.91c-.35-69.1-13.14-74.72-2.37-97.06Z" style="fill:#059669"></path><polygon points="163.58 402.66 148.23 402.66 147.42 397.27 163.66 396.72 163.58 402.66" style="fill:#263238"></polygon><path d="M127.74,213.34l-1.62,3.22c-.12.25.17.5.59.5h37.63c.33,0,.6-.16.62-.36l.32-3.21c0-.23-.26-.42-.61-.42H128.33A.66.66,0,0,0,127.74,213.34Z" style="fill:#fff"></path><path d="M132.62,217.41h-1c-.19,0-.34-.1-.33-.22l.46-4.18c0-.12.18-.22.37-.22h1c.19,0,.34.1.33.22l-.46,4.18C133,217.31,132.82,217.41,132.62,217.41Z" style="fill:#263238"></path><path d="M156.22,217.41h-1c-.19,0-.34-.1-.33-.22l.46-4.18c0-.12.18-.22.38-.22h1c.19,0,.34.1.33.22l-.46,4.18C156.58,217.31,156.41,217.41,156.22,217.41Z" style="fill:#263238"></path></g></svg>