<?xml version="1.0"?>
<svg xmlns="http://www.w3.org/2000/svg" xmlns:xlink="http://www.w3.org/1999/xlink" xmlns:svgjs="http://svgjs.com/svgjs" version="1.1" width="512" height="512" x="0" y="0" viewBox="0 0 512 512" style="enable-background:new 0 0 512 512" xml:space="preserve" class=""><g><circle xmlns="http://www.w3.org/2000/svg" cx="256" cy="256" fill="#059669" r="256" data-original="#00d65b" style="" class=""/><path xmlns="http://www.w3.org/2000/svg" d="m510.907 279.598-94.326-94.326-2.6 2.959-82.741-82.741-19.535 31.564-63.567-63.567-144.474 145.791 187.29 187.29-.376 53.853 40.409 40.409c97.561-29.845 170.336-116.397 179.92-221.232z" fill="#059669" data-original="#06bf51" style="" class=""/><path xmlns="http://www.w3.org/2000/svg" d="m248.137 73.487-14.683 32.003 40.892 7.298 19.427-10.854 37.467 3.556 14.223 42.671 33.781 46.226 37.337-9.115-56.894 105.123 19.557 26.669-26.669 53.338-8.89 38.723-32.002 20.096-21.105 31.199-30.456-37.071-26.668-54.725-10.802-23.113v-42.67l-20.151-14.224-24.052-12.445-7.223-26.669-23.113-3.556-44.449-26.669-8.245-44.448 20.691-62.042 49.782-39.301h49.782z" fill="#ffffff" data-original="#966857" style="" class=""/><path xmlns="http://www.w3.org/2000/svg" d="m416.581 185.272-37.337 9.115-33.781-46.226-14.223-42.671-37.467-3.556-19.427 10.854-18.751-3.347v304.618l4.528 9.29 30.455 37.071 21.105-31.199 32.002-20.096 8.89-38.723 26.669-53.338-19.557-26.669z" fill="#ffffff" data-original="#805142" style="" class=""/></g></svg>
