<?xml version="1.0"?>
<svg xmlns="http://www.w3.org/2000/svg" xmlns:xlink="http://www.w3.org/1999/xlink" xmlns:svgjs="http://svgjs.com/svgjs" version="1.1" width="512" height="512" x="0" y="0" viewBox="0 0 512.003 512.003" style="enable-background:new 0 0 512 512" xml:space="preserve"><g><g xmlns="http://www.w3.org/2000/svg"><g><path d="m256.002 106.001c-82.71 0-150 67.29-150 150s67.29 150 150 150 150-67.29 150-150-67.29-150-150-150zm0 280c-71.683 0-130-58.317-130-130s58.318-130 130-130 130 58.317 130 130-58.318 130-130 130z" fill="#047857" data-original="#000000" style=""/><path d="m77.5 304.973c1.727 0 3.453-.446 5-1.34 3.094-1.786 5-5.088 5-8.66v-77.943c0-3.572-1.906-6.874-5-8.66-3.094-1.787-6.906-1.787-10 0l-67.5 38.972c-3.094 1.786-5 5.088-5 8.66 0 3.573 1.906 6.874 5 8.66l67.5 38.971c1.547.893 3.274 1.34 5 1.34zm-10-27.321-37.5-21.65 37.5-21.651z" fill="#047857" data-original="#000000" style=""/><path d="m109.297 347.593c-2.527-2.527-6.21-3.516-9.66-2.588-3.451.925-6.146 3.62-7.071 7.071l-20.173 75.286c-.925 3.45.062 7.133 2.588 9.659 1.9 1.899 4.454 2.929 7.072 2.929.863 0 1.732-.111 2.588-.341l75.286-20.173c3.451-.925 6.146-3.62 7.071-7.071.925-3.45-.062-7.133-2.588-9.659zm-13.102 68.215 11.207-41.825 30.618 30.618z" fill="#047857" data-original="#000000" style=""/><path d="m294.973 424.503h-77.943c-3.573 0-6.874 1.906-8.66 5-1.787 3.094-1.787 6.906 0 10l38.971 67.5c1.786 3.094 5.087 5 8.66 5s6.874-1.906 8.66-5l38.971-67.5c1.787-3.094 1.787-6.906 0-10-1.785-3.094-5.087-5-8.659-5zm-38.972 57.5-21.65-37.5h43.301z" fill="#047857" data-original="#000000" style=""/><path d="m419.437 352.076c-.924-3.451-3.62-6.146-7.071-7.071-3.452-.925-7.133.063-9.66 2.588l-55.113 55.113c-2.526 2.526-3.513 6.209-2.588 9.659.925 3.451 3.62 6.146 7.071 7.071l75.286 20.173c.856.229 1.725.341 2.588.341 2.617 0 5.172-1.029 7.072-2.929 2.526-2.526 3.513-6.209 2.588-9.659zm-45.454 52.525 30.618-30.618 11.207 41.825z" fill="#047857" data-original="#000000" style=""/><path d="m507.002 247.342-67.5-38.972c-3.094-1.787-6.906-1.787-10 0-3.094 1.786-5 5.088-5 8.66v77.942c0 3.572 1.906 6.874 5 8.66 1.547.894 3.273 1.34 5 1.34 1.726 0 3.453-.446 5-1.34l67.5-38.971c3.094-1.786 5-5.087 5-8.66 0-3.571-1.905-6.873-5-8.659zm-62.5 30.31v-43.302l37.5 21.651z" fill="#047857" data-original="#000000" style=""/><path d="m402.706 164.41c1.9 1.899 4.454 2.929 7.072 2.929.863 0 1.732-.111 2.588-.341 3.451-.925 6.146-3.62 7.071-7.071l20.173-75.286c.925-3.45-.062-7.133-2.588-9.659-2.527-2.527-6.209-3.515-9.66-2.588l-75.286 20.173c-3.451.925-6.146 3.62-7.071 7.071-.925 3.45.062 7.133 2.588 9.659zm13.102-68.215-11.207 41.825-30.618-30.618z" fill="#047857" data-original="#000000" style=""/><path d="m217.03 87.5h77.942c3.573 0 6.874-1.906 8.66-5 1.787-3.094 1.787-6.906 0-10l-38.97-67.5c-1.786-3.094-5.087-5-8.66-5s-6.874 1.906-8.66 5l-38.972 67.5c-1.787 3.094-1.787 6.906 0 10 1.786 3.094 5.088 5 8.66 5zm38.971-57.5 21.65 37.5h-43.301z" fill="#047857" data-original="#000000" style=""/><path d="m92.566 159.927c.924 3.451 3.62 6.146 7.071 7.071.856.229 1.725.341 2.588.341 2.617 0 5.171-1.029 7.072-2.929l55.113-55.113c2.526-2.526 3.513-6.209 2.588-9.659-.925-3.451-3.62-6.146-7.071-7.071l-75.286-20.173c-3.452-.926-7.133.063-9.66 2.588-2.526 2.526-3.513 6.209-2.588 9.659zm45.454-52.525-30.618 30.618-11.207-41.825z" fill="#047857" data-original="#000000" style=""/><path d="m206.002 256.001c0 27.57 22.43 50 50 50s50-22.43 50-50-22.43-50-50-50-50 22.43-50 50zm79.999 0c0 16.542-13.458 30-30 30s-30-13.458-30-30 13.458-30 30-30 30 13.458 30 30z" fill="#047857" data-original="#000000" style=""/><path d="m304.432 168.499c-4.831-2.677-10.916-.934-13.595 3.896s-.934 10.916 3.896 13.595c25.455 14.117 41.269 40.943 41.269 70.013 0 44.112-35.888 80-80 80s-80-35.888-80-80c0-29.066 15.811-55.893 41.264-70.009 4.83-2.679 6.573-8.765 3.894-13.595-2.679-4.831-8.766-6.572-13.595-3.896-31.805 17.64-51.563 51.168-51.563 87.499 0 55.14 44.86 100 100 100s100-44.86 100-100c-.001-36.334-19.76-69.862-51.57-87.503z" fill="#047857" data-original="#000000" style=""/><path d="m256.001 176.002c5.523 0 10-4.478 10-10s-4.477-10-10-10h-.007c-5.523 0-9.996 4.478-9.996 10s4.481 10 10.003 10z" fill="#047857" data-original="#000000" style=""/></g></g></g></svg>
